<svg xmlns="http://www.w3.org/2000/svg" width="58.001" height="38" viewBox="0 0 58.001 38">
    <path id="Subtraction_2" data-name="Subtraction 2"
          d="M52-1467H14a10.012,10.012,0,0,1-10-10v-18a10.012,10.012,0,0,1,10-10H52a10.011,10.011,0,0,1,10,10v18A10.011,10.011,0,0,1,52-1467Zm-20.516-26.487a.979.979,0,0,0-.7.288l-6.5,6.5a.977.977,0,0,0-.288.7.974.974,0,0,0,.288.7l6.5,6.5a.981.981,0,0,0,.7.287.978.978,0,0,0,.7-.287l.59-.59a.978.978,0,0,0,.288-.7,1,1,0,0,0-.288-.7l-3.792-3.8H41.028a.96.96,0,0,0,.972-.969v-.835a.993.993,0,0,0-.972-1.011H28.937l3.835-3.822a.958.958,0,0,0,.288-.69.973.973,0,0,0-.288-.693l-.59-.589A.977.977,0,0,0,31.485-1493.487Z"
          transform="translate(62 -1467) rotate(180)" fill="#6d57f6"/>
</svg>
