<svg xmlns="http://www.w3.org/2000/svg" viewBox="0 0 15 18">
    <g transform="translate(-261 -264)">
        <g transform="translate(261 264)">
            <path d="M7.386,8.671A4.182,4.182,0,0,0,10.446,7.4a4.2,4.2,0,0,0,1.267-3.065A4.2,4.2,0,0,0,10.446,1.27,4.183,4.183,0,0,0,7.386,0,4.182,4.182,0,0,0,4.327,1.27,4.2,4.2,0,0,0,3.06,4.335,4.2,4.2,0,0,0,4.327,7.4a4.183,4.183,0,0,0,3.059,1.27Zm0,0"/>
            <path d="M14.964,13.841a10.72,10.72,0,0,0-.146-1.137,8.97,8.97,0,0,0-.279-1.144,5.652,5.652,0,0,0-.47-1.066,4.024,4.024,0,0,0-.708-.924,3.121,3.121,0,0,0-1.017-.64,3.512,3.512,0,0,0-1.3-.235,1.317,1.317,0,0,0-.7.3c-.211.138-.458.3-.733.473a4.2,4.2,0,0,1-.949.418,3.68,3.68,0,0,1-2.321,0,4.189,4.189,0,0,1-.948-.418c-.273-.175-.52-.334-.734-.474a1.315,1.315,0,0,0-.7-.3,3.507,3.507,0,0,0-1.3.236,3.119,3.119,0,0,0-1.017.64,4.024,4.024,0,0,0-.708.924,5.663,5.663,0,0,0-.47,1.067A8.991,8.991,0,0,0,.182,12.7a10.682,10.682,0,0,0-.146,1.138C.012,14.186,0,14.543,0,14.9a2.991,2.991,0,0,0,.887,2.261A3.19,3.19,0,0,0,3.171,18h8.657a3.189,3.189,0,0,0,2.285-.834A2.989,2.989,0,0,0,15,14.9c0-.363-.012-.72-.036-1.063Zm0,0"
                  transform="translate(0)"/>
        </g>
    </g>
</svg>
