<svg xmlns="http://www.w3.org/2000/svg" viewBox="0 0 18 18">
    <path d="M17.357,4.5H14.143V.643A.643.643,0,0,0,13.5,0H.643A.643.643,0,0,0,0,.643V15.429A2.571,2.571,0,0,0,2.571,18H15.429A2.571,2.571,0,0,0,18,15.429V5.143A.643.643,0,0,0,17.357,4.5ZM5.143,3.214H9A.643.643,0,0,1,9,4.5H5.143a.643.643,0,1,1,0-1.286Zm5.786,12.214H3.214a.643.643,0,1,1,0-1.286h7.714a.643.643,0,0,1,0,1.286Zm0-2.571H3.214a.643.643,0,1,1,0-1.286h7.714a.643.643,0,0,1,0,1.286Zm0-2.571H3.214A.643.643,0,0,1,3.214,9h7.714a.643.643,0,0,1,0,1.286Zm0-2.571H3.214a.643.643,0,1,1,0-1.286h7.714a.643.643,0,0,1,0,1.286Zm5.786,7.714a1.286,1.286,0,0,1-2.571,0V5.786h2.571v9.643Z"/>
</svg>
