<svg xmlns="http://www.w3.org/2000/svg" viewBox="0 0 17.998 18" fill="#9d9aa8">
    <g transform="translate(-260.001 -148)">
        <path d="M17.515,7.829h0L10.171.486a1.657,1.657,0,0,0-2.344,0L.489,7.824l-.007.008a1.656,1.656,0,0,0,1.1,2.823l.051,0h.293v5.4A1.942,1.942,0,0,0,3.867,18H6.74a.527.527,0,0,0,.527-.527V13.236a.886.886,0,0,1,.885-.885H9.846a.886.886,0,0,1,.885.885v4.236a.527.527,0,0,0,.527.527h2.873a1.942,1.942,0,0,0,1.94-1.939v-5.4h.271a1.657,1.657,0,0,0,1.173-2.828Zm0,0"
              transform="translate(260.001 148)"
        />
    </g>
</svg>
