<svg xmlns="http://www.w3.org/2000/svg" viewBox="0 0 18 18">
    <g transform="translate(-0.236)">
        <g transform="translate(0.236)">
            <path d="M17.924,10.973l-1.7-1.294a6.345,6.345,0,0,0,.04-.68,6.154,6.154,0,0,0-.04-.68l1.7-1.294a.8.8,0,0,0,.2-1.033L16.36,3.015a.829.829,0,0,0-1.022-.358l-2,.784a6.921,6.921,0,0,0-1.2-.68L11.824.69A.811.811,0,0,0,11.008,0H7.465A.809.809,0,0,0,6.65.684L6.345,2.762a7.134,7.134,0,0,0-1.2.68l-2.01-.786a.846.846,0,0,0-1.014.352L.349,5.989a.792.792,0,0,0,.2,1.039l1.7,1.294a5.78,5.78,0,0,0,0,1.358l-1.7,1.294a.8.8,0,0,0-.2,1.033l1.767,2.977a.828.828,0,0,0,1.022.358l2-.784a6.982,6.982,0,0,0,1.2.68l.3,2.07A.811.811,0,0,0,7.466,18h3.543a.81.81,0,0,0,.816-.684l.306-2.077a7.167,7.167,0,0,0,1.2-.681l2.01.786a.847.847,0,0,0,.3.056.817.817,0,0,0,.712-.407L18.131,12A.8.8,0,0,0,17.924,10.973ZM9.237,12a3,3,0,1,1,3.081-3A3.044,3.044,0,0,1,9.237,12Z"
                  transform="translate(-0.236)"/>
        </g>
    </g>
</svg>
