<svg fill="red" xmlns="http://www.w3.org/2000/svg" viewBox="0 0 17.999 18">
    <g transform="translate(-260 -554)">
        <g transform="translate(260 554)">
            <path d="M17.943,7.963a.758.758,0,0,0-.163-.245L15.531,5.47a.75.75,0,1,0-1.06,1.06l.97.97H11.25a.75.75,0,1,0,0,1.5H15.44l-.97.97a.75.75,0,1,0,1.061,1.06L17.78,8.781a.743.743,0,0,0,.163-.245A.751.751,0,0,0,17.943,7.963Z"/>
            <path d="M12.75,10.5a.75.75,0,0,0-.75.75V15H9V3a.751.751,0,0,0-.535-.718L5.861,1.5H12V5.25a.75.75,0,0,0,1.5,0V.75A.75.75,0,0,0,12.75,0H.75A.668.668,0,0,0,.673.014.741.741,0,0,0,.355.125C.339.136.319.136.3.148S.294.161.288.166A.743.743,0,0,0,.089.4.613.613,0,0,0,.068.466.711.711,0,0,0,.009.641a.467.467,0,0,0,0,.065C.01.722,0,.735,0,.75v15a.749.749,0,0,0,.6.735l7.5,1.5A.7.7,0,0,0,8.25,18,.75.75,0,0,0,9,17.25V16.5h3.75a.75.75,0,0,0,.75-.75v-4.5A.75.75,0,0,0,12.75,10.5Z"/>
        </g>
    </g>
</svg>
