<svg xmlns="http://www.w3.org/2000/svg" viewBox="0 0 18 15">
    <g transform="translate(-260 -323)">
        <g transform="translate(274.01 330.974)">
            <path d="M15.4,9.609H14.01a3.621,3.621,0,0,1,.219,1.245v5.261a1.551,1.551,0,0,1-.089.52h2.3A1.561,1.561,0,0,0,18,15.075V12.207A2.6,2.6,0,0,0,15.4,9.609Z"
                  transform="translate(-14.01 -9.609)"/>
        </g>
        <g transform="translate(260 330.974)">
            <path d="M3.771,10.854A3.621,3.621,0,0,1,3.99,9.609H2.6a2.6,2.6,0,0,0-2.6,2.6v2.868a1.561,1.561,0,0,0,1.559,1.559h2.3a1.552,1.552,0,0,1-.089-.52Z"
                  transform="translate(0 -9.609)"/>
        </g>
        <g transform="translate(264.81 329.621)">
            <path d="M10.591,8.255H7.409a2.6,2.6,0,0,0-2.6,2.6v5.261a.52.52,0,0,0,.52.52h7.34a.52.52,0,0,0,.52-.52V10.854A2.6,2.6,0,0,0,10.591,8.255Z"
                  transform="translate(-4.81 -8.255)"/>
        </g>
        <g transform="translate(265.875 323)">
            <path d="M9,1.365A3.124,3.124,0,1,0,12.125,4.49,3.128,3.128,0,0,0,9,1.365Z"
                  transform="translate(-5.875 -1.365)"/>
        </g>
        <g transform="translate(261.176 325.839)">
            <path d="M3.513,4.278A2.336,2.336,0,1,0,5.85,6.615,2.34,2.34,0,0,0,3.513,4.278Z"
                  transform="translate(-1.176 -4.278)"/>
        </g>
        <g transform="translate(272.15 325.839)">
            <path d="M14.487,4.278a2.337,2.337,0,1,0,2.337,2.337A2.34,2.34,0,0,0,14.487,4.278Z"
                  transform="translate(-12.15 -4.278)"/>
        </g>
    </g>
</svg>
