<svg xmlns="http://www.w3.org/2000/svg" width="18" height="18" viewBox="0 0 18 18">
    <defs>
        <style>.a{fill:#9d9aa8;}</style>
    </defs>
    <g transform="translate(0 -0.007)">
        <g transform="translate(0 0.007)">
            <path class="a"
                  d="M13.475.007H4.511A4.522,4.522,0,0,0,0,4.521v8.986a4.519,4.519,0,0,0,4.511,4.5h8.979A4.522,4.522,0,0,0,18,13.493V4.521A4.544,4.544,0,0,0,13.475.007ZM13.461,6.75v.3a6.454,6.454,0,0,1-6.552,6.457,6.568,6.568,0,0,1-3.526-1.014c.186.014.357.029.542.029A4.6,4.6,0,0,0,6.78,11.55,2.3,2.3,0,0,1,4.625,9.979a2.177,2.177,0,0,0,.428.043,2.125,2.125,0,0,0,.614-.086A2.283,2.283,0,0,1,3.854,7.707V7.679a2.207,2.207,0,0,0,1.028.286,2.241,2.241,0,0,1-.714-3.029A6.593,6.593,0,0,0,8.907,7.307a2.1,2.1,0,0,1-.057-.514,2.282,2.282,0,0,1,2.3-2.271,2.338,2.338,0,0,1,1.684.714,4.283,4.283,0,0,0,1.456-.557,2.325,2.325,0,0,1-1.013,1.257A4.558,4.558,0,0,0,14.6,5.579,4.689,4.689,0,0,1,13.461,6.75Z"
                  transform="translate(0 -0.007)"/>
        </g>
    </g>
</svg>
