<svg xmlns="http://www.w3.org/2000/svg" width="18" height="18" viewBox="0 0 18 18">
    <defs>
        <style>.a{fill:#9d9aa8;}</style>
    </defs>
    <path class="a" d="M7.843,7.229v3.286l3.029-1.629Z"/>
    <path class="a"
          d="M13.486,0H4.5A4.521,4.521,0,0,0,0,4.514V13.5A4.518,4.518,0,0,0,4.5,18h8.986A4.524,4.524,0,0,0,18,13.486V4.514A4.524,4.524,0,0,0,13.486,0Zm1.086,9.443c0,.943-.086,1.9-.086,1.9a2.592,2.592,0,0,1-.429,1.157,1.553,1.553,0,0,1-1.114.5c-1.571.114-3.929.129-3.929.129S6.086,13.086,5.186,13a1.825,1.825,0,0,1-1.243-.5,2.418,2.418,0,0,1-.429-1.157s-.086-.957-.086-1.9V8.557c0-.943.086-1.9.086-1.9A2.592,2.592,0,0,1,3.943,5.5a1.586,1.586,0,0,1,1.114-.514C6.643,4.871,9,4.857,9,4.857s2.357.014,3.929.129a1.644,1.644,0,0,1,1.129.5,2.453,2.453,0,0,1,.429,1.171s.086.957.086,1.9Z"/>
</svg>
