<svg xmlns="http://www.w3.org/2000/svg" width="18" height="18" viewBox="0 0 18 18">
    <defs>
        <style>.a{fill:#9d9aa8;}</style>
    </defs>
    <g transform="translate(0 -0.007)">
        <g transform="translate(7.023 7.023)">
            <path class="a"
                  d="M10.592,7.844a1.958,1.958,0,0,0-3.2,0A2.028,2.028,0,0,0,7.023,9a1.97,1.97,0,0,0,3.94,0A2.028,2.028,0,0,0,10.592,7.844Z"
                  transform="translate(-7.023 -7.016)"/>
        </g>
        <g transform="translate(4.425 7.867)">
            <path class="a"
                  d="M11.833,7.858A2.807,2.807,0,0,1,12.062,9,3.069,3.069,0,0,1,5.924,9a2.757,2.757,0,0,1,.228-1.142H4.425V12.44a1.159,1.159,0,0,0,1.128,1.128h6.88a1.159,1.159,0,0,0,1.128-1.128V7.858Z"
                  transform="translate(-4.425 -7.858)"/>
        </g>
        <g transform="translate(11.391 4.679)">
            <path class="a" d="M13.047,4.689H11.391v1.9h1.884V4.675Z" transform="translate(-11.391 -4.675)"/>
        </g>
        <g transform="translate(0 0.007)">
            <path class="a"
                  d="M13.475.007H4.511A4.522,4.522,0,0,0,0,4.521v8.986a4.519,4.519,0,0,0,4.511,4.5h8.979A4.522,4.522,0,0,0,18,13.493V4.521A4.544,4.544,0,0,0,13.475.007ZM14.56,7.85h0v4.6a2.1,2.1,0,0,1-2.127,2.129H5.553A2.1,2.1,0,0,1,3.426,12.45V5.564A2.1,2.1,0,0,1,5.553,3.436h6.88A2.1,2.1,0,0,1,14.56,5.564V7.85Z"
                  transform="translate(0 -0.007)"/>
        </g>
    </g>
</svg>
