<svg xmlns="http://www.w3.org/2000/svg" width="18" height="18" viewBox="0 0 18 18">
    <defs>
        <style>.a{fill:#9d9aa8;}</style>
    </defs>
    <path class="a"
          d="M16.853,0H1.15A1.149,1.149,0,0,0,0,1.148v15.7A1.149,1.149,0,0,0,1.15,18h15.7A1.149,1.149,0,0,0,18,16.852V1.148A1.146,1.146,0,0,0,16.853,0ZM14.931,10.968c.329.335,1.043.9.913,1.471-.119.526-.9.334-1.667.365a2.523,2.523,0,0,1-1.909-.365,5.8,5.8,0,0,1-.627-.7c-.215-.239-.485-.667-.854-.65-.662.033-.455.955-.69,1.584-3.678.579-5.156-1.693-6.459-3.9A33.41,33.41,0,0,1,2.1,5.412L4.7,5.4s.835,1.518,1.056,1.909a9.515,9.515,0,0,0,.608.894c.179.246.462.729.772.69.5-.065.6-2.021.283-2.676-.124-.265-.423-.358-.732-.448.1-.658,2.918-.8,3.372-.285.661.742-.457,2.807.447,3.409,1.27-.666,2.355-3.452,2.355-3.452l3.046.019a9.76,9.76,0,0,1-.976,2.175c-.291.391-1.256,1.263-1.218,1.909C13.742,10.059,14.527,10.557,14.931,10.968Z"/>
</svg>
